<svg width="587" height="176" viewBox="0 0 587 176" fill="none" xmlns="http://www.w3.org/2000/svg">
<path d="M46.708 26.9V47.96C44.068 49.904 41.248 51.332 38.248 52.244C35.272 53.132 32.08 53.576 28.672 53.576C24.424 53.576 20.572 52.916 17.116 51.596C13.684 50.276 10.744 48.44 8.29601 46.088C5.87201 43.736 4.00001 40.928 2.68001 37.664C1.36001 34.4 0.700012 30.836 0.700012 26.972C0.700012 23.06 1.33601 19.472 2.60801 16.208C3.88001 12.944 5.68001 10.136 8.00801 7.784C10.36 5.43199 13.204 3.60799 16.54 2.31199C19.876 1.016 23.62 0.367996 27.772 0.367996C29.884 0.367996 31.852 0.535995 33.676 0.871994C35.524 1.208 37.228 1.676 38.788 2.276C40.372 2.85199 41.812 3.55999 43.108 4.4C44.404 5.24 45.592 6.164 46.672 7.172L43.9 11.564C43.468 12.26 42.904 12.692 42.208 12.86C41.512 13.004 40.756 12.824 39.94 12.32C39.148 11.864 38.356 11.408 37.564 10.952C36.772 10.496 35.884 10.1 34.9 9.76399C33.94 9.42799 32.848 9.15199 31.624 8.93599C30.424 8.71999 29.032 8.612 27.448 8.612C24.88 8.612 22.552 9.04399 20.464 9.908C18.4 10.772 16.636 12.008 15.172 13.616C13.708 15.224 12.58 17.156 11.788 19.412C10.996 21.668 10.6 24.188 10.6 26.972C10.6 29.948 11.02 32.612 11.86 34.964C12.724 37.292 13.924 39.272 15.46 40.904C17.02 42.512 18.892 43.748 21.076 44.612C23.26 45.452 25.696 45.872 28.384 45.872C30.304 45.872 32.02 45.668 33.532 45.26C35.044 44.852 36.52 44.3 37.96 43.604V34.172H31.408C30.784 34.172 30.292 34.004 29.932 33.668C29.596 33.308 29.428 32.876 29.428 32.372V26.9H46.708Z" fill="#272234"/>
<path d="M76.5582 53H66.8382V0.943993H76.5582V53Z" fill="#272234"/>
<path d="M135.373 8.9H119.677V53H109.993V8.9H94.2972V0.943993H135.373V8.9Z" fill="#272234"/>
<path d="M196.869 0.943993V53H187.149V30.248H162.705V53H152.985V0.943993H162.705V23.336H187.149V0.943993H196.869Z" fill="#272234"/>
<path d="M240.214 45.188C242.086 45.188 243.754 44.876 245.218 44.252C246.706 43.628 247.954 42.752 248.962 41.624C249.97 40.496 250.738 39.128 251.266 37.52C251.818 35.912 252.094 34.112 252.094 32.12V0.943993H261.778V32.12C261.778 35.216 261.274 38.084 260.266 40.724C259.282 43.34 257.854 45.608 255.982 47.528C254.134 49.424 251.878 50.912 249.214 51.992C246.55 53.048 243.55 53.576 240.214 53.576C236.854 53.576 233.842 53.048 231.178 51.992C228.514 50.912 226.246 49.424 224.374 47.528C222.526 45.608 221.098 43.34 220.09 40.724C219.106 38.084 218.614 35.216 218.614 32.12V0.943993H228.298V32.084C228.298 34.076 228.562 35.876 229.09 37.484C229.642 39.092 230.422 40.472 231.43 41.624C232.462 42.752 233.71 43.628 235.174 44.252C236.662 44.876 238.342 45.188 240.214 45.188Z" fill="#272234"/>
<path d="M302.975 45.44C304.775 45.44 306.287 45.224 307.511 44.792C308.735 44.36 309.707 43.784 310.427 43.064C311.171 42.344 311.699 41.504 312.011 40.544C312.347 39.584 312.515 38.564 312.515 37.484C312.515 36.356 312.335 35.348 311.975 34.46C311.615 33.548 311.051 32.78 310.283 32.156C309.515 31.508 308.519 31.016 307.295 30.68C306.095 30.344 304.643 30.176 302.939 30.176H293.183V45.44H302.975ZM293.183 8.432V23.48H300.887C304.199 23.48 306.695 22.88 308.375 21.68C310.079 20.48 310.931 18.572 310.931 15.956C310.931 13.244 310.163 11.312 308.627 10.16C307.091 9.00799 304.691 8.432 301.427 8.432H293.183ZM301.427 0.943993C304.835 0.943993 307.751 1.26799 310.175 1.916C312.599 2.56399 314.579 3.48799 316.115 4.688C317.675 5.888 318.815 7.33999 319.535 9.04399C320.255 10.748 320.615 12.668 320.615 14.804C320.615 16.028 320.435 17.204 320.075 18.332C319.715 19.436 319.151 20.48 318.383 21.464C317.639 22.424 316.679 23.3 315.503 24.092C314.351 24.884 312.971 25.556 311.363 26.108C318.515 27.716 322.091 31.58 322.091 37.7C322.091 39.908 321.671 41.948 320.831 43.82C319.991 45.692 318.767 47.312 317.159 48.68C315.551 50.024 313.571 51.08 311.219 51.848C308.867 52.616 306.179 53 303.155 53H283.499V0.943993H301.427Z" fill="#272234"/>
<path d="M346.516 130.648V146.056H366.028V153.796H346.516V175H336.796V122.944H369.628V130.648H346.516Z" fill="#272234"/>
<path d="M398.097 175H388.377V122.944H398.097V175Z" fill="#272234"/>
<path d="M463.464 148.9V169.96C460.824 171.904 458.004 173.332 455.004 174.244C452.028 175.132 448.836 175.576 445.428 175.576C441.18 175.576 437.328 174.916 433.872 173.596C430.44 172.276 427.5 170.44 425.052 168.088C422.628 165.736 420.756 162.928 419.436 159.664C418.116 156.4 417.456 152.836 417.456 148.972C417.456 145.06 418.092 141.472 419.364 138.208C420.636 134.944 422.436 132.136 424.764 129.784C427.116 127.432 429.96 125.608 433.296 124.312C436.632 123.016 440.376 122.368 444.528 122.368C446.64 122.368 448.608 122.536 450.432 122.872C452.28 123.208 453.984 123.676 455.544 124.276C457.128 124.852 458.568 125.56 459.864 126.4C461.16 127.24 462.348 128.164 463.428 129.172L460.656 133.564C460.224 134.26 459.66 134.692 458.964 134.86C458.268 135.004 457.512 134.824 456.696 134.32C455.904 133.864 455.112 133.408 454.32 132.952C453.528 132.496 452.64 132.1 451.656 131.764C450.696 131.428 449.604 131.152 448.38 130.936C447.18 130.72 445.788 130.612 444.204 130.612C441.636 130.612 439.308 131.044 437.22 131.908C435.156 132.772 433.392 134.008 431.928 135.616C430.464 137.224 429.336 139.156 428.544 141.412C427.752 143.668 427.356 146.188 427.356 148.972C427.356 151.948 427.776 154.612 428.616 156.964C429.48 159.292 430.68 161.272 432.216 162.904C433.776 164.512 435.648 165.748 437.832 166.612C440.016 167.452 442.452 167.872 445.14 167.872C447.06 167.872 448.776 167.668 450.288 167.26C451.8 166.852 453.276 166.3 454.716 165.604V156.172H448.164C447.54 156.172 447.048 156.004 446.688 155.668C446.352 155.308 446.184 154.876 446.184 154.372V148.9H463.464Z" fill="#272234"/>
<path d="M527.478 122.944V175H517.758V152.248H493.314V175H483.594V122.944H493.314V145.336H517.758V122.944H527.478Z" fill="#272234"/>
<path d="M586.231 130.9H570.535V175H560.851V130.9H545.155V122.944H586.231V130.9Z" fill="#272234"/>
<line y1="-2" x2="379.993" y2="-2" transform="matrix(0.918791 -0.394744 0.404695 0.914452 156.328 163)" stroke="#B23F42" stroke-width="4"/>
</svg>
